<svg xmlns="http://www.w3.org/2000/svg" viewBox="0 0 24 24">
  <defs>
    <linearGradient id="gradient" x1="0%" y1="0%" x2="100%" y2="100%">
      <stop offset="0%" style="stop-color:#ff6b6b" />
      <stop offset="100%" style="stop-color:#4ecdc4" />
    </linearGradient>
  </defs>
  <path fill="url(#gradient)" d="M12 0C5.4 0 0 5.4 0 12s5.4 12 12 12 12-5.4 12-12S18.66 0 12 0zm3.521 17.34c-.24.371-.721.53-1.07.29-2.29-1.521-5.439-1.981-9.319-1.359-.46.101-.92-.189-1.02-.631-.101-.461.19-.92.63-1.021 4.34-1.23 7.909-.721 10.589 1.59.361.22.49.721.19 1.131zm1.471-3.279c-.301.461-.921.67-1.381.37-2.761-1.82-6.481-2.491-10.911-1.639-.54.159-1.111-.131-1.27-.67-.159-.54.13-1.111.67-1.27 5.069-1.541 9.369-.811 12.699 1.891.449.261.669.891.193 1.318zm.127-3.421c-3.511-2.181-9.951-2.431-13.24-1.621-.69.22-1.42-.16-1.641-.851-.219-.69.16-1.42.851-1.641 3.959-1.511 10.199-1.221 14.399 1.88.59.37.779 1.141.41 1.721-.361.581-1.139.771-1.779.512z"/>
</svg> 