<svg xmlns="http://www.w3.org/2000/svg" viewBox="0 0 24 24" fill="#1DB954">
  <path d="M12 0C5.4 0 0 5.4 0 12s5.4 12 12 12 12-5.4 12-12S18.66 0 12 0zm5.521 17.34c-.24.371-.721.53-1.07.29-3.29-2.021-7.439-2.481-12.319-1.359-.46.101-.92-.189-1.02-.631-.101-.461.19-.92.63-1.021 5.34-1.23 9.909-.721 13.589 1.59.361.22.49.721.19 1.131zm1.471-3.279c-.301.461-.921.67-1.381.37-3.761-2.32-9.481-2.991-13.911-1.639-.54.159-1.111-.131-1.27-.67-.159-.54.13-1.111.67-1.27 5.069-1.541 11.369-.811 15.699 1.891.449.261.669.891.193 1.318zm.127-3.421c-4.511-2.681-11.951-2.931-16.24-1.621-.69.22-1.42-.16-1.641-.851-.219-.69.16-1.42.851-1.641 4.959-1.511 13.199-1.221 18.399 1.88.59.37.779 1.141.41 1.721-.361.581-1.139.771-1.779.512z"/>
</svg> 